<?xml version="1.0" encoding="UTF-8"?>
<svg id="Calque_2" data-name="Calque 2" xmlns="http://www.w3.org/2000/svg" xmlns:xlink="http://www.w3.org/1999/xlink" viewBox="0 0 649.18 745.5">
  <defs>
    <style>
      .cls-1 {
        opacity: .7;
      }

      .cls-1, .cls-2, .cls-3, .cls-4, .cls-5, .cls-6, .cls-7, .cls-8, .cls-9, .cls-10, .cls-11, .cls-12 {
        stroke-width: 0px;
      }

      .cls-1, .cls-9, .cls-12 {
        fill: #adddf5;
      }

      .cls-2 {
        fill: #cde9f8;
      }

      .cls-3 {
        fill: #17223b;
      }

      .cls-4 {
        fill: #336b8a;
      }

      .cls-5 {
        fill: #1c2e52;
      }

      .cls-6 {
        fill: #144c60;
      }

      .cls-7 {
        fill: none;
      }

      .cls-8 {
        fill: #fff;
      }

      .cls-13 {
        clip-path: url(#clippath);
      }

      .cls-10 {
        fill: #1a2745;
      }

      .cls-11 {
        fill: #123752;
      }

      .cls-12 {
        opacity: .5;
      }
    </style>
    <clipPath id="clippath">
      <path class="cls-7" d="m25.44,213.01l41.5,114.52s3.84,16.14,22.29,13.07c18.45-3.07,98.38-13.07,98.38-13.07,0,0,20.75-1.54,15.37-19.22-5.38-17.68-6.15-34.59-10.76-39.97-4.61-5.38-100.69-91.46-108.37-91.46s-41.5,11.53-52.26,16.14c-10.76,4.61-9.71,10.17-6.15,19.98Z"/>
    </clipPath>
  </defs>
  <g id="Layer_1" data-name="Layer 1">
    <g>
      <path class="cls-3" d="m9.07,181.44L541.49,12.06c7.71-2.55,16.07,1.28,19.19,8.77l39.65,74.99c-2,3.44-5.01,8.8-5.46,9.8-.64,1.44-1.56,2.82-3.2,3.31L36.15,273.35c-6.13,1.81-12.62-1.44-14.84-7.44L.76,205.14c-1.41-3.81-.79-7.86,1.29-10.98,1.45-2.17,4.22-7.85,7.01-12.71Z"/>
      <path class="cls-11" d="m597.81,97.66l-413.61,121.84-.28.09-96.82,28.52-42.17,12.43c-6.13,1.79-12.62-1.45-14.84-7.45l-5.36-14.48-17.06-46.07c-1.43-3.84-.77-7.96,1.37-11.1.13-.19.26-.38.41-.56l.32-.38c.19-.24.38-.45.6-.66.13-.15.26-.28.41-.38.15-.17.32-.32.49-.45.43-.36.9-.68,1.37-.98.47-.3.98-.58,1.52-.81.36-.15.73-.3,1.11-.43l76.43-25.26L547.64.79c7.71-2.56,16.08,1.26,19.19,8.78l2.67,6.43,31.3,75.39c1.07,2.56-.32,5.49-2.99,6.28Z"/>
      <path class="cls-6" d="m569.5,16c-59.05,37.62-275.91,123.92-420.04,177.97-34.59,12.98-65.01,24.08-88.03,32.24-16.31,5.74-28.91,10.01-36.7,12.4l-17.06-46.07c-1.43-3.84-.77-7.96,1.37-11.1,1.24-1.81,2.99-3.29,5.1-4.23.36-.15.73-.3,1.11-.43l76.43-25.26L547.64.79c7.71-2.56,16.08,1.26,19.19,8.78l2.67,6.43Z"/>
      <path class="cls-3" d="m623.14,665.23l-474.2,80.04c-11.74,1.68-22.74-6.15-24.99-17.8l-55.07-340.5c-2.48-12.86,14-26.97,27.04-28.24l470.93-45.79c11.88-1.15,22.55,7.27,24.18,19.09l43.25,313.56c.33,2.41,9.42,1.5,9,3.77l-4.83,6.22c-3.39,5.05-8.82,8.7-15.31,9.63Z"/>
      <path class="cls-11" d="m630.11,656.31l-396.98,56.94-53.1,7.62c-11.74,1.69-22.74-6.15-24.98-17.81l-64.11-332.34c-2.5-12.85,6.64-25.06,19.68-26.35l470.92-45.77c11.89-1.15,22.55,7.26,24.19,19.09l7.88,57.09,35.36,256.48c1.69,12.11-6.75,23.31-18.85,25.04Z"/>
      <path class="cls-3" d="m611.27,216.99l12.73,77.14c-1.85,3.18-4.56,7.11-6.26,9.38-1.85,2.47-4.67,4.2-7.98,4.58L68.63,375.38c-4.84.55-9.43-2.25-11.16-6.8l-26.63-82.34c-1.34-3.51-.7-7.18,1.26-9.95,1.68-2.39,6.15-6.98,8.19-9.68l563.15-55.92c3.9-.42,7.4,2.39,7.83,6.29Z"/>
      <path class="cls-11" d="m615.91,298.86l-70.75,8.01-98.57,11.17-72.21,8.18-104.76,11.87-109.61,12.4-80.85,9.16c-2.63.3-5.19-.38-7.24-1.79-1.75-1.2-3.14-2.9-3.93-5l-6.08-15.97-22.95-60.23c-2.48-6.53,1.88-13.64,8.82-14.41l71.25-7.71,90.61-9.8,100.54-10.87,101.39-10.97,76.2-8.24,108.07-11.68,13.77-1.5c3.89-.43,7.39,2.39,7.84,6.28l2.5,22.42,6.19,55.89c.7,6.34-3.86,12.06-10.21,12.79Z"/>
      <path class="cls-6" d="m619.93,230.18c-10.93,3.8-25.71,7.96-43.4,12.38-29.61,7.39-67.45,15.48-109.33,23.74-24.4,4.8-50.15,9.69-76.48,14.52-35.06,6.43-71.1,12.81-106.15,18.85-38.52,6.66-75.86,12.94-109.4,18.49-36.17,6.02-67.96,11.23-92.1,15.22-7.92,1.3-15.01,2.48-21.16,3.5l-22.95-60.23c-2.48-6.53,1.88-13.64,8.82-14.41l71.25-7.71,90.61-9.8,100.54-10.87,101.39-10.97,76.2-8.24,108.07-11.68,13.77-1.5c3.89-.43,7.39,2.39,7.84,6.28l2.5,22.42Z"/>
      <polygon class="cls-9" points="595.82 202.98 545.16 306.87 458.72 316.66 504.37 212.86 595.82 202.98"/>
      <polygon class="cls-9" points="411.55 222.9 365.44 327.23 269.62 338.08 315.78 233.27 411.55 222.9"/>
      <path class="cls-9" d="m217.94,243.84l-51.77,105.95-87.02,9.86c-2.63.3-5.19-.38-7.24-1.79l47.1-103.31,98.93-10.7Z"/>
      <path class="cls-2" d="m595.82,202.98l-19.3,39.58c-26.03,6.49-58.41,13.54-94.35,20.75l22.18-50.45,91.46-9.88Z"/>
      <path class="cls-9" d="m576.52,242.56l-31.36,64.31-86.45,9.8,23.46-53.35c35.93-7.22,68.32-14.26,94.35-20.75Z"/>
      <path class="cls-2" d="m411.55,222.9l-26.03,58.86c-32.71,5.98-66.19,11.91-98.83,17.55l29.08-66.04,95.78-10.38Z"/>
      <path class="cls-9" d="m385.52,281.76l-20.09,45.45-95.82,10.87,17.08-38.77c32.64-5.64,66.12-11.57,98.83-17.55Z"/>
      <path class="cls-2" d="m217.95,243.84l-35.76,73.17c-2.37.38-4.7.77-7.02,1.15-36.17,6.02-67.96,11.23-92.1,15.22l35.95-78.85,98.94-10.7Z"/>
      <path class="cls-9" d="m182.19,317.01l-16.01,32.77-87.02,9.86c-2.63.3-5.19-.38-7.24-1.79l11.14-24.47c24.15-3.99,55.94-9.2,92.1-15.22,2.33-.38,4.65-.77,7.02-1.15Z"/>
      <path class="cls-9" d="m192.65,216.9l-8.73,2.69-96.82,28.52L9.04,181.44c.13-.19.26-.38.41-.56l.32-.38c.19-.24.38-.45.6-.66.13-.15.26-.28.41-.38.15-.17.32-.32.49-.45.43-.36.9-.68,1.37-.98.49-.3.98-.58,1.52-.81l77.54-25.68,100.97,65.38Z"/>
      <polygon class="cls-9" points="196.68 116.81 287.2 86.88 399.07 156.2 302.23 184.4 196.68 116.81"/>
      <polygon class="cls-9" points="384.48 54.73 471.79 24.93 577.87 103.53 486.47 130.52 384.48 54.73"/>
      <path class="cls-6" d="m15.25,176.78l76.43-25.26-77.54,25.68c.36-.15.73-.3,1.11-.43Z"/>
      <path class="cls-2" d="m154.37,192.11c-1.64.64-3.29,1.24-4.91,1.86-34.59,12.98-64.99,24.08-88,32.24h-.02l-52.39-44.77c.13-.19.26-.38.41-.56l.32-.38c.19-.24.38-.45.6-.66.13-.15.26-.28.41-.38.15-.17.32-.32.49-.45.43-.36.9-.68,1.37-.98.49-.3.98-.58,1.52-.81l77.54-25.68,62.68,40.59Z"/>
      <path class="cls-2" d="m340.22,119.74c-28.46,11.51-57.43,22.99-85.81,34.05l-57.73-36.98,90.52-29.93h.02l52.99,32.86Z"/>
      <path class="cls-2" d="m504.89,49.45c-23.34,10.85-50.56,22.8-80,35.31l-40.42-30.04,88.18-29.14,32.24,23.87Z"/>
      <polygon class="cls-9" points="472.65 25.58 384.48 54.73 471.8 24.94 472.65 25.58"/>
      <path class="cls-5" d="m25.44,213.01l41.5,114.52s3.84,16.14,22.29,13.07c18.45-3.07,98.38-13.07,98.38-13.07,0,0,20.75-1.54,15.37-19.22-5.38-17.68-6.15-34.59-10.76-39.97-4.61-5.38-100.69-91.46-108.37-91.46s-41.5,11.53-52.26,16.14c-10.76,4.61-9.71,10.17-6.15,19.98Z"/>
      <path class="cls-6" d="m630.11,656.31l-396.98,56.94c-1.84-81.73,8.88-189.27,55.08-262.73,44.47-70.73,197.66-85.87,325.4-75.73l35.36,256.48c1.69,12.11-6.75,23.31-18.85,25.04Z"/>
      <path class="cls-1" d="m197.68,654.71c17.57-3.65,347.23-59.12,374.74-63.1,27.5-3.98,41.51-4.19,38.16-1.83-3.35,2.36-177,33-252.16,44.62-52.38,8.09-120.84,19.53-158.84,25.72-16.53,2.69-24.78,3.22-27.44,1.88-2.66-1.34,7.97-3.64,25.55-7.29Z"/>
      <path class="cls-1" d="m575.54,545.97c-17.82,2.19-347.83,55.52-375.15,60.59s-37.12,8.37-36.72,10.52c.4,2.16,178.22-25.59,253.14-38.72,52.21-9.16,122.69-19.71,160.66-26.05,16.52-2.76,27.26-4.12,26.59-7.72s-10.69-.81-28.51,1.38Z"/>
      <path class="cls-1" d="m559.3,500.95c-8.24,1.19-43.6,7.01-89.55,14.66-.53-8.54-3.64-24.68-5.12-32.99-1.51-8.5-4.69-26.46-7.19-35.18,65.1-11.26,125.25-22.26,125.07-23.52-.31-2.17-10.66-2.15-38.16,1.83-27.5,3.98-357.16,59.44-374.74,63.1-17.57,3.65-27.97,4.23-27.44,7.85.52,3.62,11.13,1.46,27.66-1.23,29.8-4.85,79.38-13.68,124.65-21.16.04,2.99.44,6.56.99,9.93,3.48,21.18,7.8,48.36,11.12,58.79-63.33,10.72-115.34,19.64-122.04,21.03-17.58,3.65-27.75,5.72-27.44,7.85.31,2.13,11.13,1.46,27.66-1.23,38-6.19,108.13-18.83,160.51-26.92,75.17-11.62,252.59-41.68,252.16-44.62-.42-2.94-10.66-2.15-38.16,1.83Zm-249.31,41.5c-.11-11.28-4.54-38.77-6.17-47.9-1.34-7.52-1.92-15.83-3.2-21.25,10.29-1.69,20.3-3.29,29.74-4.75,30.44-4.7,77.65-12.56,123.01-20.39.1,7.22,2.74,19.48,3.72,25.46,3.11,18.92,5.03,35.11,7.78,42.82-47.08,7.85-104.34,17.47-154.88,26.02Z"/>
      <g class="cls-13">
        <polygon class="cls-12" points="112.66 182.88 75.15 348.83 89.6 346.51 120.02 186.37 112.66 182.88"/>
        <polygon class="cls-12" points="152.7 193.03 129.26 342.57 164.14 336.89 170.31 200.9 152.7 193.03"/>
        <polygon class="cls-12" points="63.31 330.88 94.71 176.89 73.31 166.87 52.49 298.5 63.31 330.88"/>
      </g>
      <path class="cls-10" d="m191.22,321.52s-79.19,9.52-97.61,12.75c-14.99,2.63-19.02-11.14-19.02-11.14l-43.62-114.71c-2.07-5.71-3.7-10.48-2.23-13.96-7.63,4.1-6.23,10.38-3.27,18.55l41.5,114.52s3.84,16.14,22.29,13.07c18.45-3.07,98.38-13.07,98.38-13.07,0,0,13.06-1.38,15.84-10.5-4.8,3.64-12.26,4.5-12.26,4.5Z"/>
      <circle class="cls-9" cx="100.84" cy="298.5" r="13.62" transform="translate(-209.96 350.23) rotate(-80.78)"/>
      <path class="cls-4" d="m103.12,305.9c-5.17,0-9.35-4.19-9.35-9.35,0-2.3.87-4.39,2.25-6.02-2.7,1.64-4.52,4.58-4.52,7.97,0,5.17,4.19,9.35,9.35,9.35,2.86,0,5.39-1.31,7.11-3.34-1.41.86-3.06,1.38-4.83,1.38Z"/>
      <path class="cls-8" d="m102.69,296.97c-2.27-2.27-2.99-5.23-1.61-6.62,1.38-1.38,4.34-.66,6.62,1.61s2.99,5.23,1.61,6.62-4.34.66-6.62-1.61Z"/>
      <circle class="cls-9" cx="165.02" cy="288.61" r="13.62"/>
      <path class="cls-4" d="m167.3,296.01c-5.17,0-9.35-4.19-9.35-9.35,0-2.3.87-4.39,2.25-6.02-2.7,1.64-4.52,4.58-4.52,7.97,0,5.17,4.19,9.35,9.35,9.35,2.86,0,5.39-1.31,7.11-3.34-1.41.86-3.06,1.38-4.83,1.38Z"/>
      <path class="cls-8" d="m166.87,287.08c-2.27-2.27-2.99-5.23-1.61-6.62,1.38-1.38,4.34-.66,6.62,1.61s2.99,5.23,1.61,6.62c-1.38,1.38-4.34.66-6.62-1.61Z"/>
      <circle class="cls-9" cx="68.08" cy="208.06" r="13.62" transform="translate(-150.05 226.52) rotate(-76.72)"/>
      <path class="cls-4" d="m70.35,215.46c-5.17,0-9.35-4.19-9.35-9.35,0-2.3.87-4.39,2.25-6.02-2.7,1.64-4.52,4.58-4.52,7.97,0,5.17,4.19,9.35,9.35,9.35,2.86,0,5.39-1.31,7.11-3.34-1.41.86-3.06,1.38-4.83,1.38Z"/>
      <path class="cls-8" d="m69.93,206.53c-2.27-2.27-2.99-5.23-1.61-6.62,1.38-1.38,4.34-.66,6.62,1.61,2.27,2.27,2.99,5.23,1.61,6.62-1.38,1.38-4.34.66-6.62-1.61Z"/>
      <path class="cls-2" d="m142.56,443.73c-1.06-2.63-1.89-5.77-.4-7.4,4.04-4.43,15.01-5.47,25.5-6.97,14.35-2.05,182.14-29.72,207.9-32.79,25.76-3.07,100.57-15.37,116.97-17.42,13.78-1.72,57.56-7.95,62.37-5.07,4.8,2.88,2.14,6.54,2.31,7.69,1.02,7.17-39.05,10.71-52.37,13.78-13.32,3.07-173.34,24.28-185.56,26.49-12.22,2.21-138.15,19.7-145.38,20.69-7.24.99-29.29,6.04-31.31,1.01Z"/>
      <path class="cls-2" d="m181.66,511.79c-1.12-3.31,4.45-6.46,11.05-7.57,6.6-1.11,46.89-7.78,51.41-8.44,2.04-.3,6.61-.97,8.45-.08,2.23,1.08,1.56,3.88,1.8,4.98.43,2-6.95,3.82-11.11,4.52-4.17.69-40.46,5.9-46.54,6.6-6.08.69-14.28,2.26-15.04,0Z"/>
      <path class="cls-2" d="m341,486.68c-1.12-3.31,4.45-6.46,11.05-7.57,6.6-1.11,43.1-7.24,51.41-8.44,8.3-1.2,9.81,2.9,10.25,4.9s-6.95,3.82-11.11,4.52c-4.17.69-40.46,5.9-46.54,6.6-6.08.69-13.93,3.31-15.04,0Z"/>
      <path class="cls-2" d="m568.64,444.19c.15,4.01-4.4,6.49-10.99,7.65-6.59,1.16-43.06,7.49-47.57,8.18-4.51.69-14.86.79-14.88-2.59-.02-3.39,14.83-6.6,18.99-7.32,4.16-.72,33.33-5.07,39.41-5.81,6.07-.74,14.95-2.49,15.04-.11Z"/>
    </g>
  </g>
</svg>